<?xml version="1.0" encoding="UTF-8"?>
<svg id="a" xmlns="http://www.w3.org/2000/svg" version="1.1" viewBox="0 0 258.8 60.9">
  <!-- Generator: Adobe Illustrator 29.1.0, SVG Export Plug-In . SVG Version: 2.1.0 Build 142)  -->
  <defs>
    <style>
      .st0 {
        fill: none;
      }

      .st1 {
        fill: #004acc;
      }
    </style>
  </defs>
  <path class="st1" d="M55,35.9c-.9-.9-1.8-1.6-2.8-2.1,2.8,5,2.1,11.5-2.2,15.8s-10.8,5-15.8,2.1c.6,1,1.3,2,2.2,2.9,5.2,5.1,13.5,5.1,18.6,0s5.2-13.5,0-18.6h0Z"/>
  <rect class="st0" x="73.1" y="10.1" width="215.3" height="41.3"/>
  <path class="st1" d="M85.9,10.1v16.9l15.9-16.9h11.2l-15.9,16.1,17.4,24.6h-11.2l-12.2-18.3-5.1,5.2v13.1h-8.9V10.1h8.9Z"/>
  <path class="st1" d="M125,43.7c1.2,1.2,3,1.8,5.2,1.8s3-.4,4.2-1.2c1.2-.8,1.9-1.7,2.2-2.6h7.1c-1.1,3.5-2.9,6.1-5.2,7.6-2.4,1.5-5.2,2.3-8.6,2.3s-4.4-.4-6.3-1.1-3.4-1.8-4.7-3.2c-1.3-1.4-2.3-3-3-4.9-.7-1.9-1.1-4-1.1-6.3s.4-4.3,1.1-6.2c.7-1.9,1.8-3.5,3.1-4.9s2.9-2.5,4.8-3.3,3.9-1.2,6.1-1.2,4.7.5,6.6,1.4,3.4,2.3,4.6,3.9c1.2,1.6,2.1,3.5,2.6,5.6s.7,4.3.6,6.6h-21.3c.1,2.6.8,4.5,2,5.7h0ZM134.2,28.2c-1-1.1-2.4-1.6-4.4-1.6s-2.4.2-3.2.7c-.9.4-1.5,1-2.1,1.6-.5.6-.9,1.3-1.1,2.1-.2.7-.3,1.4-.4,1.9h13.2c-.4-2.1-1.1-3.6-2-4.7h0Z"/>
  <path class="st1" d="M155.9,21.3v5.5h.1c.4-.9.9-1.8,1.5-2.5s1.4-1.4,2.2-2c.8-.6,1.7-1,2.7-1.3s1.9-.5,3-.5,1.1.1,1.8.3v7.5c-.4,0-.8-.1-1.4-.2s-1,0-1.5,0c-1.5,0-2.7.2-3.8.7-1,.5-1.9,1.2-2.5,2s-1.1,1.9-1.3,3c-.3,1.1-.4,2.4-.4,3.7v13.3h-8.1v-29.5h7.7Z"/>
  <path class="st1" d="M177.1,43.7c1.2,1.2,3,1.8,5.2,1.8s3-.4,4.2-1.2c1.2-.8,1.9-1.7,2.2-2.6h7.1c-1.1,3.5-2.9,6.1-5.2,7.6-2.4,1.5-5.2,2.3-8.6,2.3s-4.4-.4-6.3-1.1-3.4-1.8-4.7-3.2c-1.3-1.4-2.3-3-3-4.9-.7-1.9-1.1-4-1.1-6.3s.4-4.3,1.1-6.2c.7-1.9,1.8-3.5,3.1-4.9s2.9-2.5,4.8-3.3,3.9-1.2,6.1-1.2,4.7.5,6.6,1.4,3.4,2.3,4.6,3.9c1.2,1.6,2.1,3.5,2.6,5.6s.7,4.3.6,6.6h-21.3c.1,2.6.8,4.5,2,5.7h0ZM186.2,28.2c-1-1.1-2.4-1.6-4.4-1.6s-2.4.2-3.2.7-1.5,1-2.1,1.6c-.5.6-.9,1.3-1.1,2.1-.2.7-.3,1.4-.4,1.9h13.2c-.4-2.1-1.1-3.6-2-4.7h0Z"/>
  <path class="st1" d="M207.5,50.8l-10.1-29.5h8.5l6.2,20.1h.1l6.2-20.1h8l-10,29.5h-9,0Z"/>
  <path class="st1" d="M228.6,30.4c.1-1.9.6-3.5,1.4-4.7.8-1.2,1.9-2.3,3.2-3,1.3-.8,2.8-1.3,4.4-1.6,1.6-.3,3.2-.5,4.9-.5s3,.1,4.5.3c1.5.2,2.9.6,4.2,1.2s2.3,1.4,3.1,2.5,1.2,2.5,1.2,4.3v15.3c0,1.3,0,2.6.2,3.8.1,1.2.4,2.1.8,2.7h-8.2c-.1-.5-.3-.9-.4-1.4-.1-.5-.2-1-.2-1.4-1.3,1.3-2.8,2.3-4.6,2.8s-3.5.8-5.4.8-2.7-.2-3.9-.5c-1.2-.3-2.3-.9-3.2-1.6-.9-.7-1.6-1.6-2.1-2.7-.5-1.1-.8-2.4-.8-3.9s.3-3.1.9-4.1c.6-1.1,1.4-1.9,2.3-2.6.9-.6,2-1.1,3.2-1.4,1.2-.3,2.4-.6,3.6-.8s2.4-.3,3.6-.5c1.2-.1,2.2-.3,3.1-.5.9-.2,1.6-.6,2.2-1,.5-.4.8-1.1.7-1.9,0-.9-.1-1.6-.4-2.1-.3-.5-.7-.9-1.1-1.2-.5-.3-1-.5-1.6-.6-.6,0-1.3-.1-2-.1-1.6,0-2.9.3-3.8,1-.9.7-1.4,1.8-1.6,3.4h-8.1ZM247.3,36.3c-.3.3-.8.5-1.3.7s-1.1.3-1.6.4c-.6.1-1.2.2-1.9.3-.6,0-1.3.2-1.9.3-.6.1-1.2.3-1.8.5s-1.1.4-1.5.8c-.4.3-.8.7-1.1,1.2-.3.5-.4,1.1-.4,1.9s.1,1.3.4,1.8c.3.5.6.9,1.1,1.2.5.3,1,.5,1.6.6.6.1,1.2.2,1.9.2,1.6,0,2.8-.3,3.7-.8.9-.5,1.5-1.2,1.9-1.9s.7-1.5.8-2.2c0-.8.1-1.4.1-1.8v-3h0Z"/>
  <path class="st1" d="M12.4,11.9c4.3-4.3,10.8-5,15.8-2.2-.6-1-1.3-2-2.2-2.8C20.9,1.7,12.5,1.7,7.4,6.9s-5.1,13.5,0,18.7c.9.9,1.8,1.6,2.9,2.1-2.8-5-2.1-11.5,2.2-15.8Z"/>
  <path class="st1" d="M55,6.9c-5.2-5.2-13.5-5.2-18.7,0-.9.9-1.6,1.8-2.2,2.8,5-2.8,11.5-2.1,15.8,2.2,4.3,4.3,5,10.8,2.2,15.8,1-.6,2-1.3,2.8-2.1,5.2-5.1,5.2-13.5,0-18.7Z"/>
  <path class="st1" d="M12.4,49.5c-4.3-4.3-5-10.8-2.1-15.8-1,.6-2,1.3-2.9,2.1-5.1,5.1-5.1,13.5,0,18.6s13.5,5.1,18.6,0c.9-.9,1.6-1.8,2.2-2.9-5,2.8-11.5,2.1-15.8-2.1h0Z"/>
  <ellipse class="st1" cx="101.6" cy="-29" rx=".3" ry=".6"/>
  <path class="st1" d="M31,18.8h0c-6.6,0-11.9,5.3-11.9,11.9s5.3,11.9,11.9,11.9h0c6.6,0,11.9-5.3,11.9-11.9s-5.3-11.9-11.9-11.9ZM31.1,40.6c-5.4,0-9.8-4.4-9.8-9.8s4.4-9.8,9.8-9.8,9.8,4.4,9.8,9.8-4.4,9.8-9.8,9.8Z"/>
</svg>
